<svg width="18" height="18" viewBox="0 0 18 18" fill="none" xmlns="http://www.w3.org/2000/svg">
<g id="Group">
<g id="Group_2">
<g id="Group_3">
<g id="Group_4">
<path id="Vector" d="M9.19798 0H8.80078V5.138H9.19798V0Z" fill="white"/>
<path id="Vector_2" d="M9.645 12.8622H8.354V18H9.645V12.8622Z" fill="white"/>
</g>
<g id="Group_5">
<path id="Vector_3" d="M18.0001 8.131H12.8623V9.8686H18.0001V8.131Z" fill="white"/>
<path id="Vector_4" d="M5.138 8.57798H0V9.42218H5.138V8.57798Z" fill="white"/>
</g>
</g>
<g id="Group_6">
<g id="Group_7">
<path id="Vector_5" d="M7.30059 5.522L4.72461 1.07557L4.25198 1.34938L6.82796 5.79581L7.30059 5.522Z" fill="white"/>
<path id="Vector_6" d="M14.1345 16.4271L11.5586 11.9808L10.3126 12.7027L12.8884 17.149L14.1345 16.4271Z" fill="white"/>
</g>
<g id="Group_8">
<path id="Vector_7" d="M16.8147 4.53479L16.7651 4.44888L12.3148 7.01756L12.3644 7.10348L16.8147 4.53479Z" fill="white"/>
<path id="Vector_8" d="M5.90677 11.3661L5.40918 10.5068L0.962755 13.0814L1.46035 13.9408L5.90677 11.3661Z" fill="white"/>
</g>
</g>
<g id="Group_9">
<g id="Group_10">
<path id="Vector_9" d="M5.82195 6.77748L1.36475 4.22317L1.01909 4.82632L5.4763 7.38064L5.82195 6.77748Z" fill="white"/>
<path id="Vector_10" d="M17.2041 12.7842L12.7471 10.2299L11.9571 11.6084L16.4142 14.1626L17.2041 12.7842Z" fill="white"/>
</g>
<g id="Group_11">
<path id="Vector_11" d="M13.5819 1.25265L13.3667 1.12934L10.812 5.58724L11.0272 5.71055L13.5819 1.25265Z" fill="white"/>
<path id="Vector_12" d="M7.57496 12.634L6.58398 12.0661L4.02937 16.5239L5.02034 17.0918L7.57496 12.634Z" fill="white"/>
</g>
</g>
</g>
</g>
</svg>
